<mxfile host="app.diagrams.net" agent="Mozilla/5.0 (Windows NT 10.0; Win64; x64) AppleWebKit/537.36 (KHTML, like Gecko) Chrome/128.0.0.0 Safari/537.36 Edg/128.0.0.0" version="24.7.7">
  <diagram name="Page-1" id="Qb_bmCeI5ilST5ZMTAA_">
    <mxGraphModel dx="491" dy="783" grid="1" gridSize="10" guides="1" tooltips="1" connect="1" arrows="1" fold="1" page="1" pageScale="1" pageWidth="827" pageHeight="1169" math="0" shadow="0">
      <root>
        <mxCell id="0" />
        <mxCell id="1" parent="0" />
        <mxCell id="RWRRKxcsnILn6-u-UaHk-67" value="Support Party" style="swimlane;strokeColor=#000099;" vertex="1" parent="1">
          <mxGeometry x="1567" y="920" width="110" height="160" as="geometry">
            <mxRectangle x="831" y="690" width="110" height="30" as="alternateBounds" />
          </mxGeometry>
        </mxCell>
        <mxCell id="RWRRKxcsnILn6-u-UaHk-68" value="Dev" style="rounded=0;whiteSpace=wrap;html=1;strokeColor=default;align=center;verticalAlign=middle;fontFamily=Helvetica;fontSize=12;fontColor=default;fillColor=default;" vertex="1" parent="RWRRKxcsnILn6-u-UaHk-67">
          <mxGeometry x="20" y="40" width="70" height="25" as="geometry" />
        </mxCell>
        <mxCell id="RWRRKxcsnILn6-u-UaHk-69" value="Cloud&lt;br style=&quot;font-size: 10px;&quot;&gt;Service" style="rounded=0;whiteSpace=wrap;html=1;fontSize=10;" vertex="1" parent="RWRRKxcsnILn6-u-UaHk-67">
          <mxGeometry x="20" y="80" width="70" height="25" as="geometry" />
        </mxCell>
        <mxCell id="RWRRKxcsnILn6-u-UaHk-70" value="Master" style="rounded=0;whiteSpace=wrap;html=1;" vertex="1" parent="RWRRKxcsnILn6-u-UaHk-67">
          <mxGeometry x="20" y="120" width="70" height="25" as="geometry" />
        </mxCell>
        <mxCell id="RWRRKxcsnILn6-u-UaHk-71" value="Tools" style="swimlane;strokeColor=#0000FF;" vertex="1" parent="1">
          <mxGeometry x="1186.5" y="360" width="110" height="230" as="geometry">
            <mxRectangle x="964" y="598" width="70" height="30" as="alternateBounds" />
          </mxGeometry>
        </mxCell>
        <mxCell id="RWRRKxcsnILn6-u-UaHk-72" value="Monitoring" style="rounded=0;whiteSpace=wrap;html=1;" vertex="1" parent="RWRRKxcsnILn6-u-UaHk-71">
          <mxGeometry x="20" y="151" width="70" height="25" as="geometry" />
        </mxCell>
        <mxCell id="RWRRKxcsnILn6-u-UaHk-73" value="Conflunce" style="rounded=0;whiteSpace=wrap;html=1;" vertex="1" parent="RWRRKxcsnILn6-u-UaHk-71">
          <mxGeometry x="20" y="73" width="70" height="25" as="geometry" />
        </mxCell>
        <mxCell id="RWRRKxcsnILn6-u-UaHk-74" value="SDK" style="rounded=0;whiteSpace=wrap;html=1;" vertex="1" parent="RWRRKxcsnILn6-u-UaHk-71">
          <mxGeometry x="20" y="113" width="70" height="25" as="geometry" />
        </mxCell>
        <mxCell id="RWRRKxcsnILn6-u-UaHk-75" value="Official" style="rounded=0;whiteSpace=wrap;html=1;" vertex="1" parent="RWRRKxcsnILn6-u-UaHk-71">
          <mxGeometry x="20" y="35" width="70" height="25" as="geometry" />
        </mxCell>
        <mxCell id="RWRRKxcsnILn6-u-UaHk-76" value="Google" style="rounded=0;whiteSpace=wrap;html=1;" vertex="1" parent="RWRRKxcsnILn6-u-UaHk-71">
          <mxGeometry x="20" y="190" width="70" height="25" as="geometry" />
        </mxCell>
        <mxCell id="RWRRKxcsnILn6-u-UaHk-77" value="故障检测" style="whiteSpace=wrap;strokeWidth=2;" vertex="1" parent="1">
          <mxGeometry x="1568" y="384" width="79" height="34" as="geometry" />
        </mxCell>
        <mxCell id="RWRRKxcsnILn6-u-UaHk-78" value="警报确认" style="whiteSpace=wrap;strokeWidth=2;" vertex="1" parent="1">
          <mxGeometry x="1567" y="468" width="80" height="34" as="geometry" />
        </mxCell>
        <mxCell id="RWRRKxcsnILn6-u-UaHk-79" value="初步响应" style="whiteSpace=wrap;strokeWidth=2;" vertex="1" parent="1">
          <mxGeometry x="1368" y="571" width="80" height="34" as="geometry" />
        </mxCell>
        <mxCell id="RWRRKxcsnILn6-u-UaHk-80" style="edgeStyle=orthogonalEdgeStyle;rounded=0;orthogonalLoop=1;jettySize=auto;html=1;entryX=0.5;entryY=1;entryDx=0;entryDy=0;exitX=0;exitY=0;exitDx=0;exitDy=0;dashed=1;dashPattern=1 2;" edge="1" parent="1" source="RWRRKxcsnILn6-u-UaHk-81" target="RWRRKxcsnILn6-u-UaHk-71">
          <mxGeometry relative="1" as="geometry" />
        </mxCell>
        <mxCell id="RWRRKxcsnILn6-u-UaHk-81" value="问题诊断" style="whiteSpace=wrap;strokeWidth=2;" vertex="1" parent="1">
          <mxGeometry x="1287" y="674" width="80" height="34" as="geometry" />
        </mxCell>
        <mxCell id="RWRRKxcsnILn6-u-UaHk-82" value="故障修复" style="whiteSpace=wrap;strokeWidth=2;" vertex="1" parent="1">
          <mxGeometry x="1213" y="777" width="80" height="34" as="geometry" />
        </mxCell>
        <mxCell id="RWRRKxcsnILn6-u-UaHk-83" value="验证和监控" style="whiteSpace=wrap;strokeWidth=2;" vertex="1" parent="1">
          <mxGeometry x="1128" y="880" width="96" height="34" as="geometry" />
        </mxCell>
        <mxCell id="RWRRKxcsnILn6-u-UaHk-84" value="后续工作" style="whiteSpace=wrap;strokeWidth=2;" vertex="1" parent="1">
          <mxGeometry x="1070" y="983" width="81" height="34" as="geometry" />
        </mxCell>
        <mxCell id="RWRRKxcsnILn6-u-UaHk-85" value="改进措施" style="whiteSpace=wrap;strokeWidth=2;" vertex="1" parent="1">
          <mxGeometry x="1006" y="1086" width="80" height="34" as="geometry" />
        </mxCell>
        <mxCell id="RWRRKxcsnILn6-u-UaHk-86" value="监控系统" style="whiteSpace=wrap;strokeWidth=2;" vertex="1" parent="1">
          <mxGeometry x="1439" y="300" width="79" height="34" as="geometry" />
        </mxCell>
        <mxCell id="RWRRKxcsnILn6-u-UaHk-87" value="用户报告" style="whiteSpace=wrap;strokeWidth=2;" vertex="1" parent="1">
          <mxGeometry x="1568" y="300" width="79" height="34" as="geometry" />
        </mxCell>
        <mxCell id="RWRRKxcsnILn6-u-UaHk-88" value="警报筛选" style="whiteSpace=wrap;strokeWidth=2;" vertex="1" parent="1">
          <mxGeometry x="1498" y="571" width="80" height="34" as="geometry" />
        </mxCell>
        <mxCell id="RWRRKxcsnILn6-u-UaHk-89" value="优先级评估" style="whiteSpace=wrap;strokeWidth=2;" vertex="1" parent="1">
          <mxGeometry x="1628" y="571" width="96" height="34" as="geometry" />
        </mxCell>
        <mxCell id="RWRRKxcsnILn6-u-UaHk-90" value="分配团队" style="whiteSpace=wrap;strokeWidth=2;" vertex="1" parent="1">
          <mxGeometry x="1417" y="674" width="81" height="34" as="geometry" />
        </mxCell>
        <mxCell id="RWRRKxcsnILn6-u-UaHk-91" value="收集信息" style="whiteSpace=wrap;strokeWidth=2;" vertex="1" parent="1">
          <mxGeometry x="1548" y="674" width="80" height="34" as="geometry" />
        </mxCell>
        <mxCell id="RWRRKxcsnILn6-u-UaHk-92" value="根本原因分析" style="whiteSpace=wrap;strokeWidth=2;" vertex="1" parent="1">
          <mxGeometry x="1343" y="777" width="113" height="34" as="geometry" />
        </mxCell>
        <mxCell id="RWRRKxcsnILn6-u-UaHk-93" value="影响评估" style="whiteSpace=wrap;strokeWidth=2;" vertex="1" parent="1">
          <mxGeometry x="1506" y="777" width="80" height="34" as="geometry" />
        </mxCell>
        <mxCell id="RWRRKxcsnILn6-u-UaHk-94" value="临时解决方案" style="whiteSpace=wrap;strokeWidth=2;" vertex="1" parent="1">
          <mxGeometry x="1274" y="880" width="112" height="34" as="geometry" />
        </mxCell>
        <mxCell id="RWRRKxcsnILn6-u-UaHk-95" style="edgeStyle=orthogonalEdgeStyle;rounded=0;orthogonalLoop=1;jettySize=auto;html=1;entryX=0.5;entryY=0;entryDx=0;entryDy=0;dashed=1;dashPattern=1 1;" edge="1" parent="1" source="RWRRKxcsnILn6-u-UaHk-96" target="RWRRKxcsnILn6-u-UaHk-67">
          <mxGeometry relative="1" as="geometry" />
        </mxCell>
        <mxCell id="RWRRKxcsnILn6-u-UaHk-96" value="修复实施" style="whiteSpace=wrap;strokeWidth=2;" vertex="1" parent="1">
          <mxGeometry x="1436" y="880" width="81" height="34" as="geometry" />
        </mxCell>
        <mxCell id="RWRRKxcsnILn6-u-UaHk-97" value="验证修复" style="whiteSpace=wrap;strokeWidth=2;" vertex="1" parent="1">
          <mxGeometry x="1201" y="983" width="81" height="34" as="geometry" />
        </mxCell>
        <mxCell id="RWRRKxcsnILn6-u-UaHk-98" value="监控后续" style="whiteSpace=wrap;strokeWidth=2;" vertex="1" parent="1">
          <mxGeometry x="1332" y="983" width="80" height="34" as="geometry" />
        </mxCell>
        <mxCell id="RWRRKxcsnILn6-u-UaHk-99" value="事后回顾" style="whiteSpace=wrap;strokeWidth=2;" vertex="1" parent="1">
          <mxGeometry x="1136" y="1086" width="80" height="34" as="geometry" />
        </mxCell>
        <mxCell id="RWRRKxcsnILn6-u-UaHk-100" value="知识共享" style="whiteSpace=wrap;strokeWidth=2;" vertex="1" parent="1">
          <mxGeometry x="1266" y="1086" width="80" height="34" as="geometry" />
        </mxCell>
        <mxCell id="RWRRKxcsnILn6-u-UaHk-101" value="优化流程" style="whiteSpace=wrap;strokeWidth=2;" vertex="1" parent="1">
          <mxGeometry x="940" y="1189" width="81" height="34" as="geometry" />
        </mxCell>
        <mxCell id="RWRRKxcsnILn6-u-UaHk-102" value="技术改进" style="whiteSpace=wrap;strokeWidth=2;" vertex="1" parent="1">
          <mxGeometry x="1071" y="1189" width="80" height="34" as="geometry" />
        </mxCell>
        <mxCell id="RWRRKxcsnILn6-u-UaHk-103" value="" style="curved=1;startArrow=none;endArrow=block;exitX=0.49;exitY=1;entryX=0.5;entryY=0;rounded=0;" edge="1" parent="1" source="RWRRKxcsnILn6-u-UaHk-77" target="RWRRKxcsnILn6-u-UaHk-78">
          <mxGeometry relative="1" as="geometry">
            <Array as="points" />
          </mxGeometry>
        </mxCell>
        <mxCell id="RWRRKxcsnILn6-u-UaHk-104" value="" style="curved=1;startArrow=none;endArrow=block;exitX=0;exitY=0.8;entryX=0.5;entryY=0;rounded=0;" edge="1" parent="1" source="RWRRKxcsnILn6-u-UaHk-78" target="RWRRKxcsnILn6-u-UaHk-79">
          <mxGeometry relative="1" as="geometry">
            <Array as="points">
              <mxPoint x="1408" y="537" />
            </Array>
          </mxGeometry>
        </mxCell>
        <mxCell id="RWRRKxcsnILn6-u-UaHk-105" value="" style="curved=1;startArrow=none;endArrow=block;exitX=0.16;exitY=1;entryX=0.49;entryY=0;rounded=0;" edge="1" parent="1" source="RWRRKxcsnILn6-u-UaHk-79" target="RWRRKxcsnILn6-u-UaHk-81">
          <mxGeometry relative="1" as="geometry">
            <Array as="points">
              <mxPoint x="1327" y="640" />
            </Array>
          </mxGeometry>
        </mxCell>
        <mxCell id="RWRRKxcsnILn6-u-UaHk-106" value="" style="curved=1;startArrow=none;endArrow=block;exitX=0.19;exitY=1;entryX=0.5;entryY=0;rounded=0;" edge="1" parent="1" source="RWRRKxcsnILn6-u-UaHk-81" target="RWRRKxcsnILn6-u-UaHk-82">
          <mxGeometry relative="1" as="geometry">
            <Array as="points">
              <mxPoint x="1253" y="743" />
            </Array>
          </mxGeometry>
        </mxCell>
        <mxCell id="RWRRKxcsnILn6-u-UaHk-107" value="" style="curved=1;startArrow=none;endArrow=block;exitX=0.19;exitY=1;entryX=0.5;entryY=0;rounded=0;" edge="1" parent="1" source="RWRRKxcsnILn6-u-UaHk-82" target="RWRRKxcsnILn6-u-UaHk-83">
          <mxGeometry relative="1" as="geometry">
            <Array as="points">
              <mxPoint x="1176" y="846" />
            </Array>
          </mxGeometry>
        </mxCell>
        <mxCell id="RWRRKxcsnILn6-u-UaHk-108" value="" style="curved=1;startArrow=none;endArrow=block;exitX=0.28;exitY=1;entryX=0.5;entryY=0;rounded=0;" edge="1" parent="1" source="RWRRKxcsnILn6-u-UaHk-83" target="RWRRKxcsnILn6-u-UaHk-84">
          <mxGeometry relative="1" as="geometry">
            <Array as="points">
              <mxPoint x="1111" y="949" />
            </Array>
          </mxGeometry>
        </mxCell>
        <mxCell id="RWRRKxcsnILn6-u-UaHk-109" value="" style="curved=1;startArrow=none;endArrow=block;exitX=0.24;exitY=1;entryX=0.5;entryY=0;rounded=0;" edge="1" parent="1" source="RWRRKxcsnILn6-u-UaHk-84" target="RWRRKxcsnILn6-u-UaHk-85">
          <mxGeometry relative="1" as="geometry">
            <Array as="points">
              <mxPoint x="1046" y="1052" />
            </Array>
          </mxGeometry>
        </mxCell>
        <mxCell id="RWRRKxcsnILn6-u-UaHk-110" value="" style="curved=1;startArrow=none;endArrow=block;exitX=0.49;exitY=1;entryX=-0.01;entryY=0.12;rounded=0;" edge="1" parent="1" source="RWRRKxcsnILn6-u-UaHk-86" target="RWRRKxcsnILn6-u-UaHk-77">
          <mxGeometry relative="1" as="geometry">
            <Array as="points">
              <mxPoint x="1478" y="359" />
            </Array>
          </mxGeometry>
        </mxCell>
        <mxCell id="RWRRKxcsnILn6-u-UaHk-111" value="" style="curved=1;startArrow=none;endArrow=block;exitX=0.49;exitY=1;entryX=0.49;entryY=0;rounded=0;" edge="1" parent="1" source="RWRRKxcsnILn6-u-UaHk-87" target="RWRRKxcsnILn6-u-UaHk-77">
          <mxGeometry relative="1" as="geometry">
            <Array as="points" />
          </mxGeometry>
        </mxCell>
        <mxCell id="RWRRKxcsnILn6-u-UaHk-112" value="确认警报" style="curved=1;startArrow=none;endArrow=block;exitX=0.22;exitY=1;entryX=0.5;entryY=0;rounded=0;" edge="1" parent="1" source="RWRRKxcsnILn6-u-UaHk-78" target="RWRRKxcsnILn6-u-UaHk-88">
          <mxGeometry relative="1" as="geometry">
            <Array as="points">
              <mxPoint x="1538" y="537" />
            </Array>
          </mxGeometry>
        </mxCell>
        <mxCell id="RWRRKxcsnILn6-u-UaHk-113" value="设定优先级" style="curved=1;startArrow=none;endArrow=block;exitX=0.78;exitY=1;entryX=0.5;entryY=0;rounded=0;" edge="1" parent="1" source="RWRRKxcsnILn6-u-UaHk-78" target="RWRRKxcsnILn6-u-UaHk-89">
          <mxGeometry relative="1" as="geometry">
            <Array as="points">
              <mxPoint x="1676" y="537" />
            </Array>
          </mxGeometry>
        </mxCell>
        <mxCell id="RWRRKxcsnILn6-u-UaHk-114" value="分配任务" style="curved=1;startArrow=none;endArrow=block;exitX=0.7;exitY=1;entryX=0.49;entryY=0;rounded=0;" edge="1" parent="1" source="RWRRKxcsnILn6-u-UaHk-79" target="RWRRKxcsnILn6-u-UaHk-90">
          <mxGeometry relative="1" as="geometry">
            <Array as="points">
              <mxPoint x="1457" y="640" />
            </Array>
          </mxGeometry>
        </mxCell>
        <mxCell id="RWRRKxcsnILn6-u-UaHk-115" value="日志数据收集" style="curved=1;startArrow=none;endArrow=block;exitX=1;exitY=0.84;entryX=0.49;entryY=0;rounded=0;" edge="1" parent="1" source="RWRRKxcsnILn6-u-UaHk-79" target="RWRRKxcsnILn6-u-UaHk-91">
          <mxGeometry x="0.3222" y="-8" relative="1" as="geometry">
            <Array as="points">
              <mxPoint x="1588" y="640" />
            </Array>
            <mxPoint as="offset" />
          </mxGeometry>
        </mxCell>
        <mxCell id="RWRRKxcsnILn6-u-UaHk-116" value="日志分析" style="curved=1;startArrow=none;endArrow=block;exitX=0.8;exitY=1;entryX=0.5;entryY=0;rounded=0;" edge="1" parent="1" source="RWRRKxcsnILn6-u-UaHk-81" target="RWRRKxcsnILn6-u-UaHk-92">
          <mxGeometry relative="1" as="geometry">
            <Array as="points">
              <mxPoint x="1400" y="743" />
            </Array>
          </mxGeometry>
        </mxCell>
        <mxCell id="RWRRKxcsnILn6-u-UaHk-117" value="系统影响" style="curved=1;startArrow=none;endArrow=block;exitX=0.99;exitY=0.78;entryX=0.5;entryY=0;rounded=0;" edge="1" parent="1" source="RWRRKxcsnILn6-u-UaHk-81" target="RWRRKxcsnILn6-u-UaHk-93">
          <mxGeometry x="0.1815" y="-10" relative="1" as="geometry">
            <Array as="points">
              <mxPoint x="1546" y="743" />
            </Array>
            <mxPoint as="offset" />
          </mxGeometry>
        </mxCell>
        <mxCell id="RWRRKxcsnILn6-u-UaHk-118" value="恢复服务" style="curved=1;startArrow=none;endArrow=block;exitX=0.82;exitY=1;entryX=0.5;entryY=0;rounded=0;" edge="1" parent="1" source="RWRRKxcsnILn6-u-UaHk-82" target="RWRRKxcsnILn6-u-UaHk-94">
          <mxGeometry relative="1" as="geometry">
            <Array as="points">
              <mxPoint x="1330" y="846" />
            </Array>
          </mxGeometry>
        </mxCell>
        <mxCell id="RWRRKxcsnILn6-u-UaHk-119" value="部署修复" style="curved=1;startArrow=none;endArrow=block;exitX=1;exitY=0.77;entryX=0.5;entryY=0;rounded=0;" edge="1" parent="1" source="RWRRKxcsnILn6-u-UaHk-82" target="RWRRKxcsnILn6-u-UaHk-96">
          <mxGeometry x="0.0973" y="-9" relative="1" as="geometry">
            <Array as="points">
              <mxPoint x="1477" y="846" />
            </Array>
            <mxPoint as="offset" />
          </mxGeometry>
        </mxCell>
        <mxCell id="RWRRKxcsnILn6-u-UaHk-120" value="验证效果" style="curved=1;startArrow=none;endArrow=block;exitX=0.73;exitY=1;entryX=0.5;entryY=0;rounded=0;" edge="1" parent="1" source="RWRRKxcsnILn6-u-UaHk-83" target="RWRRKxcsnILn6-u-UaHk-97">
          <mxGeometry relative="1" as="geometry">
            <Array as="points">
              <mxPoint x="1242" y="949" />
            </Array>
          </mxGeometry>
        </mxCell>
        <mxCell id="RWRRKxcsnILn6-u-UaHk-121" value="持续监控" style="curved=1;startArrow=none;endArrow=block;exitX=1;exitY=0.87;entryX=0.5;entryY=0;rounded=0;" edge="1" parent="1" source="RWRRKxcsnILn6-u-UaHk-83" target="RWRRKxcsnILn6-u-UaHk-98">
          <mxGeometry x="0.1782" y="-2" relative="1" as="geometry">
            <Array as="points">
              <mxPoint x="1372" y="949" />
            </Array>
            <mxPoint as="offset" />
          </mxGeometry>
        </mxCell>
        <mxCell id="RWRRKxcsnILn6-u-UaHk-122" value="总结分析" style="curved=1;startArrow=none;endArrow=block;exitX=0.77;exitY=1;entryX=0.5;entryY=0;rounded=0;" edge="1" parent="1" source="RWRRKxcsnILn6-u-UaHk-84" target="RWRRKxcsnILn6-u-UaHk-99">
          <mxGeometry relative="1" as="geometry">
            <Array as="points">
              <mxPoint x="1176" y="1052" />
            </Array>
          </mxGeometry>
        </mxCell>
        <mxCell id="RWRRKxcsnILn6-u-UaHk-123" value="更新文档" style="curved=1;startArrow=none;endArrow=block;exitX=1;exitY=0.81;entryX=0.5;entryY=0;rounded=0;" edge="1" parent="1" source="RWRRKxcsnILn6-u-UaHk-84" target="RWRRKxcsnILn6-u-UaHk-100">
          <mxGeometry x="0.1879" y="-10" relative="1" as="geometry">
            <Array as="points">
              <mxPoint x="1306" y="1052" />
            </Array>
            <mxPoint as="offset" />
          </mxGeometry>
        </mxCell>
        <mxCell id="RWRRKxcsnILn6-u-UaHk-124" value="改进监控" style="curved=1;startArrow=none;endArrow=block;exitX=0.23;exitY=1;entryX=0.5;entryY=0;rounded=0;" edge="1" parent="1" source="RWRRKxcsnILn6-u-UaHk-85" target="RWRRKxcsnILn6-u-UaHk-101">
          <mxGeometry relative="1" as="geometry">
            <Array as="points">
              <mxPoint x="981" y="1155" />
            </Array>
          </mxGeometry>
        </mxCell>
        <mxCell id="RWRRKxcsnILn6-u-UaHk-125" value="系统增强" style="curved=1;startArrow=none;endArrow=block;exitX=0.77;exitY=1;entryX=0.5;entryY=0;rounded=0;" edge="1" parent="1" source="RWRRKxcsnILn6-u-UaHk-85" target="RWRRKxcsnILn6-u-UaHk-102">
          <mxGeometry x="-0.0184" y="-3" relative="1" as="geometry">
            <Array as="points">
              <mxPoint x="1111" y="1155" />
            </Array>
            <mxPoint as="offset" />
          </mxGeometry>
        </mxCell>
        <mxCell id="RWRRKxcsnILn6-u-UaHk-126" value="1" style="rounded=1;whiteSpace=wrap;html=1;fillColor=#b1ddf0;strokeColor=#10739e;shadow=1;fontSize=14;spacing=1;" vertex="1" parent="1">
          <mxGeometry x="1356" y="670" width="30" height="20" as="geometry" />
        </mxCell>
        <mxCell id="RWRRKxcsnILn6-u-UaHk-127" value="2" style="rounded=1;whiteSpace=wrap;html=1;fillColor=#b1ddf0;strokeColor=#10739e;shadow=1;fontSize=14;spacing=1;" vertex="1" parent="1">
          <mxGeometry x="1498" y="870" width="30" height="20" as="geometry" />
        </mxCell>
        <mxCell id="RWRRKxcsnILn6-u-UaHk-128" value="3" style="rounded=1;whiteSpace=wrap;html=1;fillColor=#b1ddf0;strokeColor=#10739e;shadow=1;fontSize=14;spacing=1;" vertex="1" parent="1">
          <mxGeometry x="1071" y="1075" width="30" height="20" as="geometry" />
        </mxCell>
        <mxCell id="RWRRKxcsnILn6-u-UaHk-129" value="" style="group" vertex="1" connectable="0" parent="1">
          <mxGeometry x="933" y="624.5" width="195" height="215.5" as="geometry" />
        </mxCell>
        <mxCell id="RWRRKxcsnILn6-u-UaHk-130" value="" style="whiteSpace=wrap;html=1;shape=mxgraph.basic.document" vertex="1" parent="RWRRKxcsnILn6-u-UaHk-129">
          <mxGeometry width="195" height="215.5" as="geometry" />
        </mxCell>
        <mxCell id="RWRRKxcsnILn6-u-UaHk-131" value="&lt;h1 style=&quot;margin-top: 0px; font-size: 13px;&quot;&gt;Ops Flow&lt;/h1&gt;&lt;div style=&quot;font-size: 13px;&quot;&gt;1. 从监控系统或用户反馈处为问题来源接收问题详情。&lt;br&gt;&lt;br&gt;&lt;/div&gt;&lt;div style=&quot;font-size: 13px;&quot;&gt;2. 通过多种维度对问题进行诊断，确认问题的影响范围，以及问题所属团队，进行分配处理。&lt;br&gt;&lt;br&gt;&lt;/div&gt;&lt;div style=&quot;font-size: 13px;&quot;&gt;3. 形成事故文档，举一反三，避免再次发生。&lt;/div&gt;" style="text;html=1;whiteSpace=wrap;overflow=hidden;rounded=0;fontSize=13;" vertex="1" parent="RWRRKxcsnILn6-u-UaHk-129">
          <mxGeometry x="12.5" y="14.5" width="170" height="201" as="geometry" />
        </mxCell>
      </root>
    </mxGraphModel>
  </diagram>
</mxfile>
